HIERARCHY
ROOT Hips
{
	OFFSET 0.00000 0.00000 0.00000
	CHANNELS 6 Xposition Yposition Zposition Zrotation Yrotation Xrotation 
	JOINT LHipJoint
	{
		OFFSET 0 0 0
		CHANNELS 3 Zrotation Yrotation Xrotation
		JOINT LeftUpLeg
		{
			OFFSET 1.61024 -1.73873 0.75100
			CHANNELS 3 Zrotation Yrotation Xrotation
			JOINT LeftLeg
			{
				OFFSET 2.29819 -6.31424 0.00000
				CHANNELS 3 Zrotation Yrotation Xrotation
				JOINT LeftFoot
				{
					OFFSET 2.76618 -7.60002 0.00000
					CHANNELS 3 Zrotation Yrotation Xrotation
					JOINT LeftToeBase
					{
						OFFSET 0.16838 -0.46263 2.02361
						CHANNELS 3 Zrotation Yrotation Xrotation
						End Site
						{
							OFFSET 0.00000 -0.00000 1.04662
						}
					}
				}
			}
		}
	}
	JOINT RHipJoint
	{
		OFFSET 0 0 0
		CHANNELS 3 Zrotation Yrotation Xrotation
		JOINT RightUpLeg
		{
			OFFSET -1.46153 -1.73873 0.75100
			CHANNELS 3 Zrotation Yrotation Xrotation
			JOINT RightLeg
			{
				OFFSET -2.38373 -6.54924 0.00000
				CHANNELS 3 Zrotation Yrotation Xrotation
				JOINT RightFoot
				{
					OFFSET -2.80314 -7.70157 0.00000
					CHANNELS 3 Zrotation Yrotation Xrotation
					JOINT RightToeBase
					{
						OFFSET -0.16142 -0.44349 2.02101
						CHANNELS 3 Zrotation Yrotation Xrotation
						End Site
						{
							OFFSET -0.00000 -0.00000 1.04381
						}
					}
				}
			}
		}
	}
	JOINT LowerBack
	{
		OFFSET 0 0 0
		CHANNELS 3 Zrotation Yrotation Xrotation
		JOINT Spine
		{
			OFFSET -0.01629 1.66985 0.14750
			CHANNELS 3 Zrotation Yrotation Xrotation
			JOINT Spine1
			{
				OFFSET 0.02086 1.62378 0.20980
				CHANNELS 3 Zrotation Yrotation Xrotation
				JOINT Neck
				{
					OFFSET 0 0 0
					CHANNELS 3 Zrotation Yrotation Xrotation
					JOINT Neck1
					{
						OFFSET -0.05690 1.78719 0.08702
						CHANNELS 3 Zrotation Yrotation Xrotation
						JOINT Head
						{
							OFFSET 0.16035 1.73871 -0.38470
							CHANNELS 3 Zrotation Yrotation Xrotation
							End Site
							{
								OFFSET 0.05645 1.80914 -0.14081
							}
						}
					}
				}
				JOINT LeftShoulder
				{
					OFFSET 0 0 0
					CHANNELS 3 Zrotation Yrotation Xrotation
					JOINT LeftArm
					{
						OFFSET 2.83089 1.66494 -0.46008
						CHANNELS 3 Zrotation Yrotation Xrotation
						JOINT LeftForeArm
						{
							OFFSET 5.54893 -0.00000 -0.00000
							CHANNELS 3 Zrotation Yrotation Xrotation
							JOINT LeftHand
							{
								OFFSET 3.02898 -0.00000 -0.00000
								CHANNELS 3 Zrotation Yrotation Xrotation
								JOINT LeftFingerBase
								{
									OFFSET 0 0 0
									CHANNELS 3 Zrotation Yrotation Xrotation
									JOINT LeftHandIndex1
									{
										OFFSET 0.64095 -0.00000 -0.00000
										CHANNELS 3 Zrotation Yrotation Xrotation
										End Site
										{
											OFFSET 0.51675 -0.00000 -0.00000
										}
									}
								}
								JOINT LThumb
								{
									OFFSET 0 0 0
									CHANNELS 3 Zrotation Yrotation Xrotation
									End Site
									{
										OFFSET 0.52464 -0.00000 0.52464
									}
								}
							}
						}
					}
				}
				JOINT RightShoulder
				{
					OFFSET 0 0 0
					CHANNELS 3 Zrotation Yrotation Xrotation
					JOINT RightArm
					{
						OFFSET -2.84442 1.45761 -0.18088
						CHANNELS 3 Zrotation Yrotation Xrotation
						JOINT RightForeArm
						{
							OFFSET -5.35190 -0.00000 -0.00000
							CHANNELS 3 Zrotation Yrotation Xrotation
							JOINT RightHand
							{
								OFFSET -3.02531 -0.00000 -0.00000
								CHANNELS 3 Zrotation Yrotation Xrotation
								JOINT RightFingerBase
								{
									OFFSET 0 0 0
									CHANNELS 3 Zrotation Yrotation Xrotation
									JOINT RightHandIndex1
									{
										OFFSET -0.78389 -0.00000 -0.00000
										CHANNELS 3 Zrotation Yrotation Xrotation
										End Site
										{
											OFFSET -0.63199 -0.00000 -0.00000
										}
									}
								}
								JOINT RThumb
								{
									OFFSET 0 0 0
									CHANNELS 3 Zrotation Yrotation Xrotation
									End Site
									{
										OFFSET -0.64164 -0.00000 0.64164
									}
								}
							}
						}
					}
				}
			}
		}
	}
}
MOTION
Frames: 12
Frame Time: .0083333
0.0001 17.848 0.7337 0 0 0 0 0 0 -21 0 0 0 0 0 0 0 0 0 0 0 0 0 0 21 0 0 0 0 0 0 0 0 0 0 0 0 0 0 0 0 0 0 0 0 0 0 -16 0 0 21 0 0 11 0 0 0 -8 0 0 0 0 0 0 0 0 0 0 0 0 0 0 0 0 0 0 0 0 8 0 0 0 0 0 0 0 0 0 0 0 0 0 0 0 0 0
0.0001 17.8480 0.7337 -145.9290 85.8386 -132.4580 0.0000 0.0000 0.0000 0.0000 0.0000 0.0000 0.0000 0.0000 0.0000 0.0000 0.0000 0.0000 0.0000 0.0000 0.0000 0.0000 0.0000 0.0000 16.7857 14.4537 -5.7221 -0.1640 -2.6088 7.1914 0.5171 -15.9660 -16.3583 -1.0266 6.4452 -18.0819 -2.2596 -0.9942 -9.8138 1.6932 -0.7673 -7.9244 2.9626 -0.0808 -2.6980 -14.1859 -10.4965 -1.9998 14.2149 -16.0651 27.3762 5.8491 -7.1188 11.5948 0.0000 0.0000 0.0000 -63.7140 -16.8682 69.7855 140.7947 -47.5920 -102.1498 -0.0000 -0.0000 17.7901 18.8945 -3.4632 -1.1845 -7.1250 0.0000 -0.0000 -5.8639 26.3119 2.6703 0.0000 0.0000 0.0000 68.4327 22.2168 74.3911 -148.0740 42.4881 -107.3092 0.0000 0.0000 4.6599 -9.2479 28.2746 -4.4104 7.1250 -0.0000 -0.0000 12.4755 -1.9725 12.3378
0.0061 17.8468 0.7339 -146.3570 85.8666 -132.8970 0.0000 0.0000 0.0000 0.0000 0.0000 0.0000 0.0000 0.0000 0.0000 0.0000 0.0000 0.0000 0.0000 0.0000 0.0000 0.0000 0.0000 0.0000 16.7522 14.4667 -5.7632 -0.1703 -2.6587 7.3300 0.5078 -15.9479 -16.4670 -1.0244 6.4384 -18.0620 -2.3616 -1.0164 -10.1334 1.7506 -0.7831 -7.8486 3.0758 -0.0879 -2.4413 -14.2846 -10.4858 -2.2167 14.4310 -16.0745 27.2595 5.9331 -7.1082 11.6252 0.0000 -0.0000 0.0000 -63.8030 -16.7162 70.2681 140.4271 -47.8148 -101.8778 -0.0000 -0.0000 17.7112 19.5327 -3.7322 -1.3229 -7.1250 0.0000 -0.0000 -5.3712 26.0151 2.4814 0.0000 -0.0000 0.0000 68.2106 22.2654 74.4818 -147.7879 42.7156 -107.1155 0.0000 0.0000 4.4542 -8.5667 28.1920 -4.0707 7.1250 -0.0000 -0.0000 12.8698 -2.1333 12.7103
0.0124 17.8456 0.7340 -146.6240 85.8796 -133.1750 0.0000 0.0000 0.0000 0.0000 0.0000 0.0000 0.0000 0.0000 0.0000 0.0000 0.0000 0.0000 0.0000 0.0000 0.0000 0.0000 0.0000 0.0000 16.7422 14.4596 -5.7509 -0.1730 -2.6791 7.3865 0.4930 -15.8854 -16.5706 -0.9935 6.3436 -17.7846 -2.2347 -0.9662 -10.1482 1.6245 -0.7193 -7.9471 2.8783 -0.0584 -2.5437 -14.1839 -10.5281 -2.2931 14.6264 -16.1913 27.2169 5.9702 -7.1279 11.6549 0.0000 -0.0000 0.0000 -63.7229 -16.4526 70.9773 139.9969 -48.0717 -101.5585 -0.0000 -0.0000 17.0762 20.2043 -4.4301 -1.6283 -7.1250 0.0000 -0.0000 -4.8465 25.2589 2.3230 0.0000 -0.0000 0.0000 68.3008 21.9779 74.5950 -147.5221 42.9249 -106.9348 0.0000 0.0000 4.3627 -8.0159 28.0064 -3.7833 7.1250 -0.0000 -0.0000 13.1846 -2.3769 12.9791
0.0190 17.8446 0.7345 -146.4070 85.9078 -132.9630 0.0000 0.0000 0.0000 0.0000 0.0000 0.0000 0.0000 0.0000 0.0000 0.0000 0.0000 0.0000 0.0000 0.0000 0.0000 0.0000 0.0000 0.0000 16.7437 14.4910 -5.7423 -0.1755 -2.6982 7.4397 0.4971 -15.9048 -16.5475 -0.9938 6.3444 -17.7871 -2.0759 -0.8974 -10.0902 1.4862 -0.6321 -8.0909 2.6525 -0.0166 -2.7350 -14.0258 -10.5596 -2.3571 14.7841 -16.2908 27.1996 5.9877 -7.1364 11.6794 -0.0000 0.0000 0.0000 -63.6408 -16.3292 71.7005 139.4889 -48.3698 -101.1797 -0.0000 -0.0000 16.2099 20.5650 -4.9711 -1.8621 -7.1250 0.0000 -0.0000 -4.5664 24.6726 2.2502 -0.0000 0.0000 0.0000 68.3816 21.6115 74.7697 -147.2563 43.1321 -106.7535 0.0000 0.0000 4.4773 -8.0377 27.9128 -3.7820 7.1250 -0.0000 -0.0000 13.1687 -2.4658 12.9409
0.0250 17.8448 0.7351 -146.3090 85.8916 -132.8780 0.0000 0.0000 0.0000 0.0000 0.0000 0.0000 0.0000 0.0000 0.0000 0.0000 0.0000 0.0000 0.0000 0.0000 0.0000 0.0000 0.0000 0.0000 16.7769 14.4840 -5.7307 -0.1775 -2.7136 7.4824 0.4983 -15.9248 -16.5685 -0.9812 6.3055 -17.6734 -2.0651 -0.9187 -10.2710 1.5095 -0.6535 -8.1069 2.6679 -0.0262 -2.6521 -13.9037 -10.5169 -2.4000 14.9129 -16.2572 27.0042 6.0137 -7.1013 11.6045 0.0000 0.0000 0.0000 -63.5778 -16.5520 72.1665 138.9968 -48.6532 -100.8110 -0.0000 -0.0000 15.1628 20.7734 -4.8203 -1.8257 -7.1250 0.0000 -0.0000 -4.4126 24.8260 2.1582 0.0000 0.0000 0.0000 68.2751 21.5489 74.9350 -146.8809 43.4214 -106.4962 0.0000 0.0000 4.6388 -8.3796 27.8073 -3.9310 7.1250 -0.0000 -0.0000 12.9650 -2.5303 12.7140
0.0313 17.8439 0.7357 -146.7390 85.8637 -133.3230 0.0000 0.0000 0.0000 0.0000 0.0000 0.0000 0.0000 0.0000 0.0000 0.0000 0.0000 0.0000 0.0000 0.0000 0.0000 0.0000 0.0000 0.0000 16.7922 14.4316 -5.6976 -0.1781 -2.7183 7.4956 0.4848 -15.8654 -16.6574 -0.9805 6.3032 -17.6668 -2.0675 -0.9536 -10.4647 1.5276 -0.6916 -8.1203 2.6838 -0.0440 -2.5582 -13.8254 -10.4671 -2.4723 15.0304 -16.2098 26.8931 6.0468 -7.0609 11.5699 0.0000 0.0000 0.0000 -63.5624 -16.6644 72.6223 138.4909 -48.9390 -100.4304 -0.0000 -0.0000 14.2046 21.1508 -4.9665 -1.9183 -7.1250 0.0000 -0.0000 -4.1284 24.6570 2.0347 0.0000 0.0000 0.0000 68.1925 21.5373 75.0344 -146.4578 43.7426 -106.2045 0.0000 0.0000 4.9393 -8.2821 27.7819 -3.8815 7.1250 -0.0000 -0.0000 13.0212 -2.5661 12.7635
0.0405 17.8430 0.7359 -147.5660 85.8937 -134.1760 0.0000 0.0000 0.0000 0.0000 0.0000 0.0000 0.0000 0.0000 0.0000 0.0000 0.0000 0.0000 0.0000 0.0000 0.0000 0.0000 0.0000 0.0000 16.7363 14.3803 -5.6156 -0.1765 -2.7061 7.4615 0.4804 -15.8538 -16.7017 -0.9791 6.2988 -17.6537 -2.0856 -0.9887 -10.6156 1.5165 -0.7268 -8.1870 2.6789 -0.0573 -2.5447 -13.8555 -10.4166 -2.4837 15.1511 -16.1627 26.8663 6.1059 -7.0305 11.5678 -0.0000 0.0000 0.0000 -63.6351 -16.4660 73.0436 137.9265 -49.2515 -100.0038 -0.0000 -0.0000 13.2512 21.5185 -5.6417 -2.2197 -7.1250 0.0000 -0.0000 -3.8498 23.9204 1.9624 -0.0000 0.0000 0.0000 68.1394 21.3598 75.3372 -146.0341 44.0595 -105.9106 0.0000 0.0000 5.6037 -8.2978 27.8195 -3.8938 7.1250 -0.0000 -0.0000 13.0133 -2.5276 12.7647
0.0535 17.8417 0.7358 -147.0930 85.9349 -133.6810 0.0000 0.0000 0.0000 0.0000 0.0000 0.0000 0.0000 0.0000 0.0000 0.0000 0.0000 0.0000 0.0000 0.0000 0.0000 0.0000 0.0000 0.0000 16.7347 14.4124 -5.5506 -0.1734 -2.6826 7.3963 0.4876 -15.8811 -16.6470 -1.0088 6.3908 -17.9228 -2.0444 -1.0280 -10.8907 1.5498 -0.7667 -8.2618 2.6853 -0.0738 -2.4722 -13.6872 -10.3332 -2.5359 15.0752 -16.0377 26.8828 6.0664 -6.9603 11.5363 0.0000 0.0000 0.0000 -63.6877 -16.1947 73.3050 137.2824 -49.6001 -99.5145 -0.0000 -0.0000 12.6284 22.2294 -6.3402 -2.5842 -7.1250 0.0000 -0.0000 -3.3248 23.1380 1.7537 0.0000 0.0000 0.0000 68.0635 21.1992 75.8085 -145.7143 44.2953 -105.6878 0.0000 0.0000 6.3261 -8.2796 27.4290 -3.8350 7.1250 -0.0000 -0.0000 13.0107 -2.9108 12.6691
0.0671 17.8408 0.7337 -145.2250 85.9303 -131.7630 0.0000 0.0000 0.0000 0.0000 0.0000 0.0000 0.0000 0.0000 0.0000 0.0000 0.0000 0.0000 0.0000 0.0000 0.0000 0.0000 0.0000 0.0000 16.8301 14.4986 -5.5179 -0.1710 -2.6641 7.3448 0.4840 -15.8655 -16.6709 -1.0157 6.4118 -17.9841 -1.8902 -1.0413 -11.2056 1.6277 -0.7796 -8.3314 2.6766 -0.0804 -2.3753 -13.5731 -10.2729 -2.7062 14.9695 -15.9356 27.0121 6.0194 -6.8994 11.5804 0.0000 0.0000 0.0000 -63.8309 -15.9947 73.6233 136.5202 -50.0016 -98.9324 -0.0000 -0.0000 12.4018 23.5300 -6.8285 -2.9637 -7.1250 0.0000 -0.0000 -2.3745 22.5406 1.2839 0.0000 0.0000 0.0000 67.9678 21.1289 76.1671 -145.3426 44.5659 -105.4276 0.0000 0.0000 7.0669 -8.2018 27.2656 -3.7778 7.1250 -0.0000 -0.0000 13.0512 -3.0789 12.6696
0.0762 17.8392 0.7323 -144.1720 85.8870 -130.7000 0.0000 0.0000 0.0000 0.0000 0.0000 0.0000 0.0000 0.0000 0.0000 0.0000 0.0000 0.0000 0.0000 0.0000 0.0000 0.0000 0.0000 0.0000 16.9243 14.5017 -5.4403 -0.1666 -2.6298 7.2497 0.4852 -15.8754 -16.6722 -0.9947 6.3473 -17.7956 -1.7467 -1.0515 -11.3949 1.6806 -0.7927 -8.3961 2.6486 -0.0875 -2.3417 -13.6979 -10.2197 -2.8671 15.0536 -15.8693 27.1563 6.0832 -6.8607 11.6785 -0.0000 0.0000 0.0000 -63.9187 -15.8817 73.9653 135.8056 -50.3677 -98.3835 -0.0000 -0.0000 12.1826 24.6719 -7.1752 -3.2837 -7.1250 0.0000 -0.0000 -1.5470 22.0935 0.8518 -0.0000 0.0000 0.0000 67.8210 21.0912 76.4575 -144.8750 44.9012 -105.0985 0.0000 0.0000 7.9097 -8.5734 27.5057 -3.9829 7.1250 -0.0000 -0.0000 12.8405 -2.8029 12.5202
0.0846 17.8372 0.7307 -144.4190 85.8873 -130.9680 0.0000 0.0000 0.0000 0.0000 0.0000 0.0000 0.0000 0.0000 0.0000 0.0000 0.0000 0.0000 0.0000 0.0000 0.0000 0.0000 0.0000 0.0000 16.9237 14.4448 -5.3154 -0.1613 -2.5873 7.1317 0.4918 -15.9042 -16.6279 -0.9983 6.3584 -17.8280 -1.6719 -1.0614 -11.5321 1.6802 -0.8026 -8.4590 2.6043 -0.0918 -2.3344 -13.8071 -10.1644 -3.0273 15.1264 -15.7972 27.2870 6.1408 -6.8196 11.7676 -0.0000 0.0000 0.0000 -63.8951 -15.6589 74.2010 134.9962 -50.7703 -97.7583 -0.0000 -0.0000 12.3223 25.8751 -7.6508 -3.6948 -7.1250 0.0000 -0.0000 -0.6878 21.4886 0.3881 -0.0000 0.0000 0.0000 67.7052 21.0293 76.7241 -144.4089 45.2296 -104.7685 0.0000 0.0000 8.5808 -8.9660 27.7554 -4.2023 7.1250 -0.0000 -0.0000 12.6191 -2.5137 12.3609
